<svg xmlns="http://www.w3.org/2000/svg" width="1472" height="1102" viewBox="0 0 1472 1102">
  <defs>
    <style>
      .cls-1 {
        stroke: #000;
        stroke-width: 1px;
        fill-rule: evenodd;
      }
    </style>
  </defs>
  <path id="study-folder-o-shape" class="cls-1" d="M606,202h397c15.96,0,32.26-1.353,46,2,24.78,6.047,46.87,13.347,65,26,6.03,4.206,11.23,10.648,17,15,5.79,4.365,12.69,9.28,17,15,16.84,22.326,30.72,44.5,39,76,4.47,17.017,3,38.388,3,59v99H598c-16.186,0-36.641-2.124-51,1l-26,1c-17.7,4.115-36.159,5.493-53,11-42.4,13.864-82.858,31.295-117,54-36.835,24.5-67.654,56.945-94,92-12.238,16.283-27.562,30.454-40,47-5.077,6.754-12.919,12.249-18,19-23.312,30.977-50.688,58.039-74,89-6.644,8.824-16.357,16.187-23,25-15.865,21.045-35.352,39.168-51,60-7.154,9.523-18.434,26.619-28,33v-8c-2.285-3.7-1-13.474-1-19V211c0-33.531-.768-65.922,9-90C50.765,72.278,85.391,36.805,134,17,174.551,0.478,250.406,7,306,7h86c14.344,0,32.43-1.711,45,1,13.032,2.811,25.293-.225,37,3,68.483,18.866,112.87,64.613,130,135C607.912,162.075,606,183.144,606,202ZM550,591h801c28.03,0,54.14.01,73,8,13.63,5.773,32.6,17.4,27,41-8.03,33.854-31.25,49.452-49,73-21.2,28.127-45.83,52.846-67,81-6.64,8.827-16.36,16.185-23,25-19.34,25.69-41.67,48.292-61,74-6.63,8.819-16.36,16.175-23,25-14.01,18.618-31.19,34.627-45,53-11.48,15.272-24.7,31.67-40,43-27.57,20.42-58.74,36.04-93,50-46.25,18.85-118.308,14-183,14H204c-42.1,0-101.383,4.64-119-19-10.416-13.98-7.51-40.04,1-54,7.785-12.769,19.277-22.43,28-34,14.108-18.712,29.915-35.271,44-54l12-12c33.272-44.165,72.769-82.8,106-127,6.631-8.819,16.361-16.175,23-25,12.16-16.165,27.02-30.086,39-46,20.233-26.877,43.137-50.8,72-69,27.423-17.292,59.255-29.244,93-40l33-6C540.648,590.969,546.744,593.054,550,591Zm421,29c-6.635,3.875-19.217,1.008-27,3-16.275,4.165-33.091,6.893-48,13-66.332,27.17-123.685,65.765-163,120-10.865,14.988-35.3,43.705-28,72,9.02,34.946,50.914,36.345,82,49,10.227,4.163,36.8,8.54,32,26-7.613,27.707-51.236,53.515-80,62-16.688,4.923-47.976,5.063-61-3-3.571-2.211-5.174-6.056-8-9-1.327-31.758,26.276-39.83,27-72-19.573-12.942-47.714-6.869-68,2-29.25,12.788-44.181,39.706-62,64-10.569,14.409-25.166,25.659-36,40-11.488,15.21-34.806,27.43-36,52,2.541,3.1,2.646,5.49,7,7,6.153,4.85,21.456,3.1,29,1,13.968-3.89,23.806-7.68,34-15,6.544-4.7,11.1-14.02,19-17,12.128,48.37,98.775,43.32,145,28,41.345-13.7,80.259-32.06,113-55,9-6.3,17.3-14.552,26-21,14.276-10.587,28.307-21.843,39-36l11-10c16.46-21.811,35.767-42.157,43-73,3.985-16.992-5.136-29.109-12-36-19.152-19.226-47.683-24.485-77-34-10.548-3.423-28.038-4.339-32-14-5.3-8.787,13.638-27.671,18-32,21.407-21.243,84.887-47.6,116-15-0.134,21.454-9.951,28.347-17,42-2.686,5.2-5.579,14.583-2,20,9.387,14.21,54.86,1.571,64-4,22.24-13.548,34.86-33.332,50-54,11.28-15.4,26.45-27.711,38-43,9.62-12.738,27.45-21.588,29-42-1.94-2.322-2.41-4.242-5-6-4.67-3.724-16.44-4.439-23-3-17.55,3.85-24.67,3.158-37,12-8.9,6.381-15.19,19.147-25,24C1045.41,625.37,1009.88,619.544,971,620Z"/>
</svg>
