<svg xmlns="http://www.w3.org/2000/svg" width="1166" height="998" viewBox="0 0 1166 998">
  <defs>
    <style>
      .cls-1 {
        stroke: #000;
        stroke-width: 1px;
        fill-rule: evenodd;
      }
    </style>
  </defs>
  <path id="study-folder-shape" class="cls-1" d="M535,195H951c11.559,0,26.143-1.131,36,1,11.225,2.427,20.16.275,30,3,28.31,7.835,51.87,21.862,70,40,18.21,18.211,32.19,42.582,40,71,4.23,15.381,3,34.973,3,54V725c0,41.728,5.52,101.123-6,133-11.96,33.1-33.88,61.978-61,80-36.23,24.075-79.063,24-140,24H213c-30,0-61,1.445-84-6C74.043,938.21,39.309,896.881,25,838c-4.438-18.262-2-44.86-2-66V200c0-21.687-1.241-44.36,4-62,11.26-37.895,33.056-67.823,62-88,44.037-30.7,105.24-25,179-25h94c17.73,0,36.731-1.85,52,2,56.82,14.326,97.719,50.409,115,104C534.847,149.132,535.023,171.776,535,195Zm16,107c-2.415,1.431-6.385.163-10,1-10.916,2.526-22.492,3.515-33,7-20.692,6.863-39.1,18.057-55,30-38.47,28.9-70.69,108.8-44,174,12.807,31.289,36.611,54.263,64,71,43.093,26.333,110.994,28.622,159,49,23.685,10.054,26.9,12,33,40,0.447,2.05,1.83,7.4,1,11-7.71,33.475-30.086,49.992-71,50l-26-1c-7.227-1.724-16.108-3.093-23-6-15.042-6.344-28.637-17.968-35-33-10.761-25.422-5.342-55.88-28-70-9.4-5.857-18.409-4.161-32-7a46.561,46.561,0,0,0-18,0c-8.242,1.929-17.452,3.931-24,8-8.137,5.057-16.689,14.255-20,24-4.406,12.968-.581,35.453,2,47v14c0.3,1.361,1.6,5.092,1,8-5.039,24.436-10.375,80.764,1,99,6.576,10.543,15.876,13.511,30,17,7.211,1.781,17.415,3.167,26,1,11.781-2.974,22.921-9.3,28-19,2.8-5.344,2.183-19.689,7-23,6.225,8.705,18.707,13.255,28,19,34.7,21.45,95.931,40.547,152,25,67.255-18.648,110.091-54.9,131-120,4.982-15.513,7-32.67,7-54V648c-3.41-15.78-5.245-30.662-11-44-21.439-49.685-73.2-72.517-127-90-28.706-9.328-61.645-12.339-90-21-18.435-5.631-35.145-7.98-41-26-2.719-8.367-2.145-19.411,0-27,7.939-28.089,30.119-35,66-35,10.633,0,20.217-.418,29,2,17.476,4.811,34.1,12.621,43,26,10.254,15.416,9.135,41.942,20,57,8.647,11.984,20.43,13.172,38,17,5.955,1.3,15.228,1.641,22,0,8.134-1.971,16.963-4.624,23-9,21.513-15.594,10.91-55.285,11-87,0.087-30.628,13.578-76.754-9-93-9.391-6.757-18.61-5.2-33-8-8.069-1.571-23.208.391-30,4-7.888,4.192-12.491,14.409-15,24-1.4,5.353.6,13.665-2,18-4.755-7.057-12.17-12.915-19-18C639.818,310.317,616.161,302.336,551,302Z"/>
</svg>
