<svg xmlns="http://www.w3.org/2000/svg" width="583" height="669" viewBox="0 0 583 669">
  <defs>
    <style>
      .cls-1 {
        stroke: #fff;
        stroke-width: 1px;
        fill-rule: evenodd;
      }
    </style>
  </defs>
  <path class="cls-1" d="M180,512c23.233-.089,49.461-1.508,71,1,2.175,3.028,7.9,8.184,4,14-3.709,11.288-24.5,26.5-33,35-27.2,27.2-54.368,54.213-82,81-3.09.094-6.33,0.14-8-1-11.292-3.713-26.5-24.5-35-33L34,547,16,527l1-10c14.674-9.516,51.967-5.136,75-5V66c0-12.036-2.094-26.867,5-32,6.336-4.908,46-2,58-2,5.259,0,14.543-1.21,18,1,2.927,0.947,3.511,1.764,5,4,4.5,6.007,2,24.349,2,34V512ZM572,294H473V258c6.159-2.085,17.139-1.079,25-1-1.289-12.206-7.151-23.61-11-34l-4-14H400q-7.5,24-15,48h24c3.125,9.315,1.083,25.774,1,37H311c-0.094-16.605.029-21.851,0-36,6.159-2.085,17.139-1.079,25-1,1.757-14.252,12.645-37.958,18-51q3-10.5,6-21c10.524-25.575,19.336-54.03,29-80,6.181-16.611,11.112-33.131,17-49,2.8-7.552,3.3-17.191,8-23,3.137-1.976,11.147-1,16-1h40c4,20,15.4,46.486,23,65,3.331,8.116,3.663,15.887,7,24,9.341,22.708,16.687,48.28,26,71,6.7,16.351,10.63,33.452,17,49,2.1,5.136,1.82,11.068,5,15,4.186,2.71,16.8,1.132,23,1C574.125,266.315,572.083,282.774,572,294ZM471,171c-0.935-8.637-5.293-16.71-8-24-5.685-15.311-9.589-31.381-15-46-2.88-7.783-2.238-20.535-7-27-0.017,13.41-5.254,24.9-9,35l-20,62h59ZM344,381H538v31c-5.127,4.109-7.164,10.526-11,16-9.912,14.145-19.869,28.545-30,43-26.006,37.1-51.784,74.593-78,112-5.342,7.622-12.863,14.357-18,22h8c4.912-3.066,18.983-1,26-1h65V563h41c2.066,6.234,1,17.077,1,25v55H342V612c0.931-2.652,4.5-4.867,6-7,7.81-11.118,15.4-22.2,23-33,22.567-32.073,44.678-64.228,67-96,9.941-14.15,27.569-47.934,41-56v-1h-5c-4.734,2.956-18.2,1-25,1H385v40H344V381Z"/>
</svg>
