<svg xmlns="http://www.w3.org/2000/svg" width="638" height="669" viewBox="0 0 638 669">
  <defs>
    <style>
      .cls-1 {
        stroke: #fff;
        stroke-width: 1px;
        fill-rule: evenodd;
      }
    </style>
  </defs>
  <path class="cls-1" d="M180,512c23.233-.089,49.461-1.508,71,1,2.175,3.028,7.9,8.184,4,14-3.709,11.288-24.5,26.5-33,35-27.2,27.2-54.368,54.213-82,81-3.09.094-6.33,0.14-8-1-11.292-3.713-26.5-24.5-35-33L34,547,16,527l1-10c14.674-9.516,51.967-5.136,75-5V66c0-12.036-2.094-26.867,5-32,6.336-4.908,46-2,58-2,5.259,0,14.543-1.21,18,1,2.927,0.947,3.511,1.764,5,4,4.5,6.007,2,24.349,2,34V512Zm74-410c144.926,2.315,251.965,76.1,315,195,12.8,24.142,22.915,53.3,30,80,4.258,16.043,10.948,34.163,10,46-0.675,8.437,4.455,19.393,3,27-0.764,4,1.077,14.352,2,18,4.283,16.931-3.818,31.571-11,38-3.2,2.866-8.234,8.068-15,7-2.317-.366-6.474-0.579-12-1-1.924-2.431-3.516-1.078-6-3-5.292-4.094-9.969-13.925-12-21-0.769-2.678,1.162-5.827,1-7-2.535-18.355-2.354-37.129-6-53q0.5-2,1-4c-4.348-15.629-8.585-39.924-15-57-10.811-28.778-25.62-54.578-41-79-2.435-3.867-6.06-7.953-9-12-0.79-1.087-3.2-1.053-4-2v-3l-5-3c-6.492-8.562-11.605-13.654-19-21l-3-5h-3l-1-4-4-1c-3.4-2.725-7.638-9.627-11-12-2.075-1.465-3.851-.611-6-2-4.529-2.928-6.866-6.915-10-10-5.878-.788-23.257-13.235-31-19l-6-1c-10.32-5.1-22.724-11.719-34-16-7.891-3-11.961-1.776-18-6-13.635.311-27.173-5.367-41-8-3.079-.586-8.277,1.826-12,1-16.854-3.738-27.066.2-39-9-11.365-8.763-10.27-33.073-2-44C243.273,106.676,250.368,105.939,254,102Zm0,101c123.413,3.254,201.073,66.484,245,171,9.748,23.193,23.255,64.276,20,89-0.245,1.86,1.645,6.557,2,8,2.379,9.664-4.027,31.163-9,35-11.492,8.865-34.107,10.427-42-4-3.793-6.932-8.867-36.924-6-46-4.693-10.075-2.471-19.813-6-32-6.6-22.774-15.413-47.292-28-65-25.255-35.53-51.459-60.769-91-78-8.293-3.614-18.491-9.743-28-12-11.635-2.761-23.678-2.914-36-6l-9,1c-9.375-.784-16.447-2.038-23-7-11.7-8.856-12.7-36.24-2-47C244.279,206.7,250.53,206.085,254,203Zm3,98a168.907,168.907,0,0,1,46,7c71.254,20.056,101.577,72.955,122,134,1.214,3.628.161,11.912,1,16,3.678,17.926,4.28,45.211-13,53-4.067,1.833-7.8.455-11,1-2.416.412-7.269,1.659-11-1-13.858-4.5-16.077-18.113-19-31q0.5-4.5,1-9c-2.513-8.234-1.053-14.457-5-26-7.42-21.7-20.054-42.624-36-56-14.78-12.4-33.57-20.933-51-25-19.444-4.537-30.961,1.736-42-12-8.673-10.792-6.854-39.157,6-46C246.692,305.1,254.279,303.984,257,301Zm16,109c5.343,0.787,10.934-.788,16,0,9.39,1.46,23.506,11.98,29,18,2.759,3.023,3.11,8.181,5,12,15.9,32.124-5.73,66.224-33,73-33.086,8.221-64.261-31.618-57-60,2.883-11.27,13.147-30.7,24-37C262.309,412.918,268.168,413.352,273,410Z"/>
</svg>
