<svg xmlns="http://www.w3.org/2000/svg" width="638" height="669" viewBox="0 0 638 669">
  <defs>
    <style>
      .cls-1 {
        stroke: #fff;
        stroke-width: 1px;
        fill-rule: evenodd;
      }
    </style>
  </defs>
  <path class="cls-1" d="M180,512c23.233-.089,49.461-1.508,71,1,2.175,3.028,7.9,8.184,4,14-3.709,11.288-24.5,26.5-33,35-27.2,27.2-54.368,54.213-82,81-3.09.094-6.33,0.14-8-1-11.292-3.713-26.5-24.5-35-33L34,547,16,527l1-10c14.674-9.516,51.967-5.136,75-5V66c0-12.036-2.094-26.867,5-32,6.336-4.908,46-2,58-2,5.259,0,14.543-1.21,18,1,2.927,0.947,3.511,1.764,5,4,4.5,6.007,2,24.349,2,34V512ZM400,120c24.654-.459,48.487-0.562,68,5,78.526,22.384,127.467,71.32,152,148,7.086,22.147,13.144,62.452,6,91-4.3,17.183-7.448,33.906-14,49-24.391,56.19-67.139,92.837-124,116-16.328,6.651-35.147,6.587-54,11-8.612,2.016-24.944.677-32-1l-24-2a283.4,283.4,0,0,1-42-14c-63.014-27.106-102.455-73.146-122-144-4.872-17.662-10.472-54.852-5-78,3.523-14.9,5.515-30.611,11-44,22.205-54.2,61.518-98.2,117-122,12.455-5.344,26.582-8.311,40-12C383.925,121.1,394.344,123.556,400,120Zm17,61c-4.021,2.353-11.539-.275-17,1-10.282,2.4-21.521,3.183-31,7-42.52,17.121-72.678,44.969-91,89l-7,27c-4.529,17.42-1.034,45.365,3,59,15.794,53.39,43.105,86.035,93,105,15.508,5.895,31.5,9,54,9h15c64.547-15.288,100.705-41.7,122-100,7.393-20.238,12.282-57.21,5-83-3.927-13.907-9-28.513-16-40-18.52-30.41-45.691-54.121-83-67C449.88,183.126,433.707,184.155,417,181Zm1,149V264c0-11.724-.939-25.919,1-36,6.475-3.8,21.771-3.911,31-2,4.7,9.686,3,28.692,3,43v91c-1.834,1.285-1.712,1.968-4,3-4.4,3.817-18.217,2-26,2-23.189,0-53.3,3.034-73-2-2.043-7.011-2.06-18.113-2-28,0.8-1.021.355-.274,1-2,1.766-.961,1.68-1.257,4-2,3.667-2.3,13.5-1,19-1h46Z"/>
</svg>
