<svg xmlns="http://www.w3.org/2000/svg" width="638" height="669" viewBox="0 0 638 669">
  <defs>
    <style>
      .cls-1 {
        stroke: #fff;
        stroke-width: 1px;
        fill-rule: evenodd;
      }
    </style>
  </defs>
  <path class="cls-1" d="M180,512c23.233-.089,49.461-1.508,71,1,2.175,3.028,7.9,8.184,4,14-3.709,11.288-24.5,26.5-33,35-27.2,27.2-54.368,54.213-82,81-3.09.094-6.33,0.14-8-1-11.292-3.713-26.5-24.5-35-33L34,547,16,527l1-10c14.674-9.516,51.967-5.136,75-5V66c0-12.036-2.094-26.867,5-32,6.336-4.908,46-2,58-2,5.259,0,14.543-1.21,18,1,2.927,0.947,3.511,1.764,5,4,4.5,6.007,2,24.349,2,34V512ZM407,88c3.09-.094,6.33-0.141,8,1,11.03,4.082,15.3,22.333,20,33,10.047,22.821,23.469,45.873,35,68,4.87,9.345,8.932,30.875,22,31,8.686,5.208,23.237,2.439,34,5,21.953,5.223,47.055,5.845,69,11,13.754,3.231,33.655-.372,38,12,0.961,1.418.976,3.273,1,6-23.352,28.638-51,53-77,79-6.593,6.593-26.242,19.778-27,30,4.672,7.406,2.616,19.6,5,29,6.535,25.761,8.551,55.035,15,81,2.955,11.9,6.1,30.721-3,37-8.413,6.606-30.324-9.493-37-13-21.614-11.355-44.112-20.292-65-33-9.906-6.027-22.772-16.658-36-18-7.815,7.116-19.7,9.356-29,15-21.634,13.133-45.057,24.063-68,36-12.249,6.373-22.568,16.476-39,13-6.916-13.484-1.671-34.118,2-49l17-103c-10.56-6.933-19.148-18.148-28-27-17.144-17.144-34.684-34.043-52-51-9.063-8.875-23.537-14.762-24-32,14.707-13.408,24.28-7.9,46-13,17.514-4.114,36.4-3.631,55-8,14.757-3.466,31.588-6.57,48-7,15.387-28.363,29.141-58.562,44-87C389.512,117.709,394.8,100.391,407,88Z"/>
</svg>
