<svg xmlns="http://www.w3.org/2000/svg" width="1000" height="800" viewBox="0 0 1000 800">
  <metadata><?xpacket begin="﻿" id="W5M0MpCehiHzreSzNTczkc9d"?>
<x:xmpmeta xmlns:x="adobe:ns:meta/" x:xmptk="Adobe XMP Core 5.6-c138 79.159824, 2016/09/14-01:09:01        ">
   <rdf:RDF xmlns:rdf="http://www.w3.org/1999/02/22-rdf-syntax-ns#">
      <rdf:Description rdf:about=""/>
   </rdf:RDF>
</x:xmpmeta>
                                                                                                    
                                                                                                    
                                                                                                    
                                                                                                    
                                                                                                    
                                                                                                    
                                                                                                    
                                                                                                    
                                                                                                    
                                                                                                    
                                                                                                    
                                                                                                    
                                                                                                    
                                                                                                    
                                                                                                    
                                                                                                    
                                                                                                    
                                                                                                    
                                                                                                    
                                                                                                    
                           
<?xpacket end="w"?></metadata>
<defs>
    <style>
      .cls-1 {
        fill-rule: evenodd;
      }
    </style>
  </defs>
  <path id="_123_copy" data-name="123 copy" class="cls-1" d="M219.763,175.193q-5.244-7.86-19.388-7.86a93.561,93.561,0,0,0-17.292,1.572q-19.392,3.672-30.392,3.668-8.916,0-26.986-2.62t-26.986-2.62q-18.348,0-29.344,10.742t-11,28.558q0,35.112,30.392,35.108a75.292,75.292,0,0,0,17.816-2.62,112.226,112.226,0,0,1,11.528-1.048q17.808,0,17.816,24.628V407.325q0,23.58-.524,27.248-3.144,16.776-15.72,16.768a118.334,118.334,0,0,1-14.41-1.31,120.143,120.143,0,0,0-14.41-1.31q-14.676,0-23.58,9.432t-8.908,25.152q0,17.292,11,28.034T98.2,522.081a25.218,25.218,0,0,0,5.764-.524l31.44-4.192q7.86-1.044,39.3-1.048,34.056,0,47.684,1.572l31.964,3.668a18.573,18.573,0,0,0,5.24.524q16.236,0,26.2-10.742,9.948-10.734,9.956-28.558,0-34.056-34.06-34.06a79.882,79.882,0,0,0-12.052,1.31,78.937,78.937,0,0,1-12.052,1.31q-14.148,0-14.148-18.864V197.725q0-16.236-3.668-22.532h0ZM589.187,343.4q41.388-27.768,41.4-78.6,0-48.2-37.466-76.5T491.723,160q-63.408,0-102.966,26.986T349.2,256.937q0,24.636,14.934,40.348t38.514,15.72q20.952,0,35.632-13.886,14.664-13.878,14.672-33.8,0-13.62-9.956-26.724a86.786,86.786,0,0,1,41.92-10.48q23.052,0,37.2,9.432T536.263,262.7q0,17.82-13.624,28.3t-60.784,28.82q-123.144,48.216-123.14,130.476,0,33.54,18.34,55.806t45.588,22.27q18.864,0,31.178-10.742a34.311,34.311,0,0,0,12.314-26.986,23.059,23.059,0,0,0-3.144-11q4.716-5.232,9.956-5.24,8.376,0,35.632,21.484,39.3,30.924,74.932,30.916,34.056,0,59.474-27.248T648.4,435.621q0-27.768-14.672-46.112t-37.2-18.34q-17.292,0-29.082,11.266a36.615,36.615,0,0,0-11.79,27.51q0,28.3,31.44,34.584-9.96,7.86-17.816,7.86-12.06,0-40.086-21.222t-54.234-21.222q-36.156,0-59.736,28.3,3.66-20.952,18.34-30.916,14.664-9.948,62.356-24.1,61.308-18.336,93.272-39.824h0Zm210.123-7.336q0,24.108,24.1,25.152,66.024,2.1,66.024,46.636,0,23.064-18.864,37.728t-48.732,14.672q-16.776,0-25.414-2.882t-21.746-12.838q13.092-15.192,13.1-31.44,0-19.38-14.41-32.75a48.766,48.766,0,0,0-34.322-13.362q-23.064,0-38.776,17.292t-15.72,42.444q0,45.072,38.776,73.36t100.608,28.3q71.256,0,114.232-33.536,42.96-33.528,42.968-89.08,0-40.344-22.27-65.238t-62.094-29.082l60.784-63.4q19.38-20.436,19.388-47.684,0-18.864-6.288-25.938T947.6,167.333l-152.484,1.048q-34.584,0-66.024-1.048H725.95q-29.352,0-29.344,25.152a152.491,152.491,0,0,0,2.1,20.7,154.877,154.877,0,0,1,2.1,21.222q0,8.388-2.882,25.676t-2.882,25.676q0,17.292,11,28.034t28.3,10.742q41.388,0,41.4-44.54a68.667,68.667,0,0,0-2.1-13.886,68.015,68.015,0,0,1-2.1-13.886q0-13.092,22.532-13.1H869l-51.876,57.116h0q-17.82,19.392-17.816,39.824h0Z"/>
</svg>
