<svg xmlns="http://www.w3.org/2000/svg" width="1000" height="800" viewBox="0 0 1000 800">
  <metadata><?xpacket begin="﻿" id="W5M0MpCehiHzreSzNTczkc9d"?>
<x:xmpmeta xmlns:x="adobe:ns:meta/" x:xmptk="Adobe XMP Core 5.6-c138 79.159824, 2016/09/14-01:09:01        ">
   <rdf:RDF xmlns:rdf="http://www.w3.org/1999/02/22-rdf-syntax-ns#">
      <rdf:Description rdf:about=""/>
   </rdf:RDF>
</x:xmpmeta>
                                                                                                    
                                                                                                    
                                                                                                    
                                                                                                    
                                                                                                    
                                                                                                    
                                                                                                    
                                                                                                    
                                                                                                    
                                                                                                    
                                                                                                    
                                                                                                    
                                                                                                    
                                                                                                    
                                                                                                    
                                                                                                    
                                                                                                    
                                                                                                    
                                                                                                    
                                                                                                    
                           
<?xpacket end="w"?></metadata>
<defs>
    <style>
      .cls-1 {
        fill-rule: evenodd;
      }
    </style>
  </defs>
  <path id="abc_copy" data-name="abc copy" class="cls-1" d="M341.073,516.841q15.45-11,15.458-28.3a28.627,28.627,0,0,0-28.82-28.82,11.755,11.755,0,0,0-3.668.524,55.311,55.311,0,0,1-7.86.524q-8.388,0-8.384-16.768V335.537q0-51.348-29.868-70.216-27.78-17.292-84.364-17.292-52.4,0-82.268,16.244t-29.868,44.54q0,18.864,13.624,31.44t34.584,12.576q18.336,0,30.654-9.956t12.314-24.628v-2.1a51.336,51.336,0,0,1-.524-7.336q0-11,17.292-11,15.192,0,25.414,8.122t10.218,20.174q0,16.776-13.362,24.89-13.362,8.13-50.566,14.41a333.989,333.989,0,0,0-47.16,11.528Q66.231,393.181,66.235,448.2q0,36.156,24.628,57.9t66.024,21.746q50.3,0,86.984-34.584,14.664,34.584,57.64,34.584Q325.607,527.845,341.073,516.841ZM178.9,463.917q-28.3,0-28.3-24.1,0-15.192,28.82-22.532,42.444-11,46.112-13.1v11.528q0,48.216-46.636,48.208h0ZM463.947,166.285a152.79,152.79,0,0,0-17.816,1.572,217.126,217.126,0,0,1-27.772,1.572,181.275,181.275,0,0,1-19.912-1.572,181.559,181.559,0,0,0-19.912-1.572q-14.676,0-23.318,9.694t-8.646,25.414q0,28.824,25.152,28.82a27.121,27.121,0,0,0,8.384-1.048,29.159,29.159,0,0,1,9.432-2.1q8.9,0,8.908,26.724V492.737q0,30.4,29.868,30.392,28.812,0,28.82-24.1a113.225,113.225,0,0,0-1.048-13.1q30.912,41.928,84.364,41.92t85.412-39.3q31.956-39.3,31.964-104.8,0-60.78-28.558-98.25T554.6,248.029q-41.928,0-75.98,35.632V184.625q0-18.336-14.672-18.34h0Zm15.72,221.128q0-31.44,13.886-52.138t35.37-20.7q44.532,0,44.54,73.36T527.875,461.3q-48.216,0-48.208-73.884h0Zm374.659-24.89q11,9.174,28.82,9.17,21.48,0,35.108-12.838t13.624-33.8q0-33.528-30.13-55.282-30.138-21.738-76.242-21.746-63.936,0-101.656,37.728t-37.728,102.18q0,63.936,36.68,101.918,36.672,38,98.512,37.99,48.2,0,82.792-26.2t34.584-61.832q0-16.764-11-27.51t-28.82-10.742q-15.72,0-23.056,6.288-5.244,4.716-12.576,22.008-12.06,27.78-37.728,27.772-25.152,0-40.348-19.912t-15.2-52.924q0-31.956,14.41-51.09t37.466-19.126a45.813,45.813,0,0,1,26.724,8.384q-5.244,7.86-5.24,15.72Q843.322,353.357,854.326,362.523Z"/>
</svg>
