<svg xmlns="http://www.w3.org/2000/svg" width="794" height="794" viewBox="0 0 794 794">
  <defs>
    <style>
      .cls-1 {
        fill-rule: evenodd;
      }
    </style>
  </defs>
  <path id="Shape_" data-name="Shape " class="cls-1" d="M313,20c4.485-.156,12.221-0.849,15,1,3.441,1.077,4.878,2.6,6,6,2.242,2.81,2.136,7.715,2,13-3.634,3.728-7.389,7.3-11,11C300.171,51.985,299.767,32.2,313,20Zm143,0c4.485-.156,12.221-0.849,15,1,4.7,1.612,5.042,4.875,8,8a97.793,97.793,0,0,1-1,14,60.155,60.155,0,0,0-10,8c-9.011.381-15.856-1.579-18-8-3.152-3.9-1.765-11.716-1-17ZM310,140c22.9-.551,39.218,7.465,45,23,8.711,23.4-8.379,45.954-22,51-30.768,11.4-61.844-20.03-50-51,2.536-6.632,11.23-15.422,17-19C303.261,141.978,307.3,142.329,310,140Zm144,0c21.219-.506,34.252,4.457,42,17,14,22.668-.9,50.375-19,57-29.833,10.92-61.895-19.989-50-50,2.655-6.7,10.858-16.677,17-20C447.881,141.9,451.068,142.629,454,140Zm138,2c25.772-.626,39.019,6.525,46,24,8.631,21.6-7.922,42.781-20,48-28.583,12.35-62.988-13.463-54-45,2.465-8.649,10.14-18.517,17-23Zm-423,1c22.787-.549,34.727,4.627,43,18,15.407,24.9-6.131,51.913-25,57-28.136,7.586-55.436-23.289-45-51C147.57,152.21,157.281,151.065,169,143ZM308,253c37.82-.626,59.387,13.14,70,39,16.26,39.62-12.823,77.212-42,85-39.48,10.537-66.769-15.788-76-40-2.964-7.776-7.1-25.566-3-37,6.146-17.145,16.444-31.263,31-40Zm145,0c39.381-.66,61.811,14.319,72,42,13.849,37.624-15.839,72.863-39,81-40.725,14.308-75.032-16.711-83-43-2.447-8.074-2.446-25.926,0-34,5.121-16.906,17.179-30.652,31-39Zm139,27c25.772-.626,39.019,6.525,46,24,8.631,21.6-7.922,42.781-20,48-28.583,12.35-62.987-13.463-54-45,2.5-8.776,10.05-18.458,17-23Zm-423,1c22.787-.549,34.727,4.627,43,18,15.407,24.9-6.169,51.919-25,57-28.135,7.592-55.434-23.293-45-51,3.061-8.13,10.871-16.815,18-21ZM32,301a48.713,48.713,0,0,1,15,2c3.8,5.7,6.991,7.811,7,18-1.664,1.764-1.516,3.86-3,6-1.815,2.617-5.721,3.79-8,6-3.672.141-8.876,0.435-11-1-3.634-1.083-6.756-3.407-8-7-3.786-4.628-1.29-12.984,0-18A34.817,34.817,0,0,0,32,301Zm715,0c3.671-.141,8.875-0.435,11,1,4.753,1.569,5.9,4.94,9,8,0.154,4.279.744,11.387-1,14-2.359,7.408-8.657,9.362-19,9-3.728-3.634-7.295-7.389-11-11-0.131-3.474-.334-8.032,1-10C738.879,305.922,743.017,304.764,747,301ZM452,404c36.11-.6,58.378,10.915,69,35,19.764,44.814-12.3,81.946-47,90-7.328,1.7-21.045.836-27-1-24.857-7.662-57.118-39-45-79,4.98-16.437,16.73-29.755,30-38C437.848,407.366,446.059,407.847,452,404Zm-144,1c37.157-.617,57.124,12.035,69,36,19.642,39.634-12.014,79.566-41,88-29.46,8.571-57.413-8.274-68-23-4.043-5.623-5.349-10.831-8-18-2.805-7.585-7.038-24.708-3-36,6.176-17.271,16.381-31.211,31-40C293.914,408.444,302.023,408.783,308,405Zm285,21c24.835-.6,38.225,8.037,45,25,8.795,22.021-10.14,44.695-23,49-28.389,9.5-59.525-16.065-51-46,2.536-8.906,9.906-18.444,17-23C584.7,428.627,589.653,428.544,593,426Zm-424,3c22.15-.538,35.174,4.738,43,18,14.9,25.25-5.676,51.79-25,57-28.276,7.623-55.436-23.292-45-51C147.57,438.211,157.28,437.064,169,429ZM32,449c9.011-.381,15.856,1.579,18,8,3.786,4.628,1.29,12.984,0,18a50.632,50.632,0,0,0-8,6c-13.949.362-14.8-3.356-21-10a53.781,53.781,0,0,1,2-16C25.64,453.417,29.757,451.188,32,449Zm714,0c3.474-.131,8.032-0.334,10,1,6.078,1.879,7.236,6.017,11,10v10c-3.706,3.813-7.188,7.293-11,11l-13-1c-4.572-6.678-8.129-7.5-8-20C738.634,456.272,742.389,452.705,746,449ZM169,571c22.866-.552,34.676,4.566,43,18,12.794,20.647-2.23,47.625-17,54-30.708,13.255-65.46-16.393-53-49C147.549,579.479,157.63,578.693,169,571Zm140,1c24.352-.587,39.8,6.33,46,23,9.718,26.117-10.654,47.589-27,52-29.784,8.038-54.815-22.9-45-52C287.435,581.851,299.036,579.631,309,572Zm285,1c24.11-.582,38.891,7.3,45,24,8.838,24.154-8.632,44.757-23,50-27.187,9.92-60.077-17.251-51-46,2.749-8.708,10.557-19.9,18-24C586.881,574.86,590.817,575.417,594,573Zm-139,5c19.761-.55,31.614,6.534,37,20,6.931,17.328-5.439,35.216-15,40-23.3,11.658-53.545-10.959-46-37C435.326,586.07,445.617,586.086,455,578ZM315,737a51.654,51.654,0,0,1,15,2c5.056,7.1,10.743,22.761-2,27-16.5,14.023-35.372-20.787-16-27C312.771,738.318,314.232,737.689,315,737Zm143,1a48.713,48.713,0,0,1,15,2,50.613,50.613,0,0,0,6,8,97.791,97.791,0,0,1-1,14,59.792,59.792,0,0,0-9,7c-9.625.449-16.679-.089-19-7-3.152-3.9-1.765-11.716-1-17A81.774,81.774,0,0,0,458,738Z"/>
</svg>
